<svg xmlns="http://www.w3.org/2000/svg" version="1.1" xmlns:xlink="http://www.w3.org/1999/xlink" xmlns:svgjs="http://svgjs.dev/svgjs" width="1000" height="330" viewBox="0 0 1000 330"><g transform="matrix(1,0,0,1,-0.6060587603245153,0.4522470391559352)"><svg viewBox="0 0 396 131" data-background-color="#080808" preserveAspectRatio="xMidYMid meet" height="330" width="1000" xmlns="http://www.w3.org/2000/svg" xmlns:xlink="http://www.w3.org/1999/xlink"><g id="tight-bounds" transform="matrix(1,0,0,1,0.2399992690885142,-0.179528370089173)"><svg viewBox="0 0 395.52 131.35905674017835" height="131.35905674017835" width="395.52"><g><svg viewBox="0 0 645.8214675320514 214.48851839999998" height="131.35905674017835" width="395.52"><g transform="matrix(1,0,0,1,250.3014675320515,31.393793392269558)"><svg viewBox="0 0 395.52 151.70093161546086" height="151.70093161546086" width="395.52"><g id="textblocktransform"><svg viewBox="0 0 395.52 151.70093161546086" height="151.70093161546086" width="395.52" id="textblock"><g><svg viewBox="0 0 395.52 151.70093161546086" height="151.70093161546086" width="395.52"><g transform="matrix(1,0,0,1,0,0)"><svg width="395.52" viewBox="0.10000000149011612 -37.849998474121094 100.88999938964844 38.69999694824219" height="151.70093161546086" data-palette-color="#755bb4"><path d="M6.75 0.35Q6 0.35 5.58-0.38 5.15-1.1 5.15-2.15L5.15-2.15Q5.15-3.8 5.35-6.2L5.35-6.2 5.45-7.5 5.55-10.15Q5.55-11.9 5.2-17.95L5.2-17.95Q4.85-24 4.85-25.75L4.85-25.75Q4.85-25.9 4.88-26.33 4.9-26.75 4.9-27.65L4.9-27.65Q4.95-28.65 4.95-30.1L4.95-30.1Q4.95-33.75 4.45-34.75L4.45-34.75Q4.15-34.75 3.15-34.6L3.15-34.6 1.75-34.5Q1.1-34.5 0.6-34.88 0.1-35.25 0.1-35.85L0.1-35.85Q0.1-36.45 1.3-36.9L1.3-36.9Q3.05-37.5 7.25-37.75L7.25-37.75Q8.95-37.85 9.3-37.85L9.3-37.85Q9.9-37.85 10.4-37.45 10.9-37.05 10.9-36.45L10.9-36.45Q10.9-35.85 10.48-35.48 10.05-35.1 9.4-35.1L9.4-35.1 8.5-35.15Q8.1-35.2 7.6-35.2L7.6-35.2 7.1-35.2Q7.45-31.8 7.45-29.05L7.45-29.05 7.4-25.85Q7.35-24.4 7.35-22.6L7.35-22.6Q7.35-20.2 7.55-16.85L7.55-16.85Q7.8-12.7 7.8-11.1L7.8-11.1Q7.8-9.2 8-6.6L8-6.6Q8.2-3.95 8.2-2.1L8.2-2.1Q8.2 0.35 6.75 0.35L6.75 0.35ZM24.95 0Q23.25 0 23.25-8.25L23.25-8.25 23.3-11.1 23.35-13.4 23.35-13.55 23.35-14.05Q23.4-14.45 23.4-15L23.4-15Q23.4-15.1 23.25-15.25L23.25-15.25Q23.1-15.4 23.1-15.5L23.1-15.5 23.1-15.55Q22.85-15.45 22.2-15.45L22.2-15.45Q21.55-15.45 20.6-15.65L20.6-15.65Q20.3-15.7 19-15.9L19-15.9 19-10.15Q19-8.85 19.15-6.05L19.15-6.05Q19.3-3.3 19.3-1.95L19.3-1.95Q19.3-1.2 18.9-0.65 18.5-0.1 17.85-0.1L17.85-0.1Q16.9-0.1 16.5-1.95L16.5-1.95Q16.1-3.85 16.1-6.9L16.1-6.9 16.2-10.95Q16.25-12.65 16.25-14.55L16.25-14.55 16.25-15.4 16.25-16.1Q16.25-16.9 16.2-17.15L16.2-17.15 16.2-17.4 16.35-20.3Q16.35-22.2 16.2-25.95L16.2-25.95Q16.05-29.7 16.05-31.6L16.05-31.6Q16.05-32.2 16.45-32.65 16.85-33.1 17.45-33.1L17.45-33.1Q19.05-33.1 19.05-30.1L19.05-30.1 18.95-23.9Q18.85-21.1 18.85-17.65L18.85-17.65Q19.6-17.4 21.55-17.4L21.55-17.4 23.4-17.4Q23.5-17.7 23.5-18L23.5-18Q23.5-20.4 23.2-25.1L23.2-25.1Q22.85-29.5 22.85-32.25L22.85-32.25Q22.85-32.8 23.27-33.18 23.7-33.55 24.3-33.55L24.3-33.55Q24.65-33.55 25.3-33.3L25.3-33.3 25.75-33.1Q25.75-26 26.25-14.15L26.25-14.15 26.7-1.5Q26.7-0.8 26.17-0.4 25.65 0 24.95 0L24.95 0ZM41.45 0.85Q40.34 0.85 39.45-1.55L39.45-1.55Q38.39-4.15 37.89-6.9L37.89-6.9 37.55-8.6Q36.09-15.75 35.7-16.75L35.7-16.75 35.09-16.75Q35.09-15.3 35.05-14.1L35.05-14.1 35.05-11.35Q35.05-4.65 35.99-0.9L35.99-0.9 35.45 0.45 34.05 0.45 33.39-0.3 33.45-3.65Q33.45-8.15 32.99-17.3L32.99-17.3Q32.59-27.05 32.59-30.95L32.59-30.95Q32.59-33.35 34.24-33.35L34.24-33.35Q36.95-33.35 38.67-31.95 40.39-30.55 40.39-28.05L40.39-28.05 40.39-24.55Q40.39-23.8 40.14-22.83 39.89-21.85 39.59-21.25L39.59-21.25 38.64-19.45 37.84-17.95 38.09-16.75 38.8-13.2Q39.5-9.35 40.14-6.95 40.8-4.55 41.75-2.6L41.75-2.6 42.05-2Q42.55-1 42.55-0.4L42.55-0.4Q42.55 0.1 42.25 0.48 41.95 0.85 41.45 0.85L41.45 0.85ZM35.3-19.2Q36.39-19.75 37.17-22.23 37.95-24.7 37.95-26.8L37.95-26.8Q37.95-28.4 37.55-29.8L37.55-29.8Q37.3-30.6 36.72-31.03 36.14-31.45 35.3-31.45L35.3-31.45 35.2-31.2 35.09-30.75 35.2-24.85Q35.3-22.25 35.3-19.2L35.3-19.2ZM49.74 0.65Q49.09 0.65 48.57 0.2 48.04-0.25 47.99-0.9L47.99-0.9 47.99-2.2 47.99-3.2Q47.94-3.65 47.94-4.25L47.94-4.25Q47.94-5.3 47.79-7.45L47.79-7.45 47.69-10.65Q47.69-13.1 47.84-17.95L47.84-17.95Q48.04-22.3 48.04-25.25L48.04-25.25Q48.04-25.95 47.89-27.35L47.89-27.35Q47.74-28.8 47.74-29.45L47.74-29.45Q47.74-33 49.84-33L49.84-33Q51.49-33 53.67-32.35 55.84-31.7 55.84-30.8L55.84-30.8Q55.84-30.3 55.42-29.88 54.99-29.45 54.39-29.2L54.39-29.2Q52.29-29.95 50.59-30.2L50.59-30.2Q50.64-29.45 50.64-28.05L50.64-28.05Q50.64-26.05 50.59-24.45L50.59-24.45Q50.44-22.05 50.44-20.85L50.44-20.85 50.59-20.05 51.39-20.1Q51.79-20.15 52.39-20.15L52.39-20.15Q54.79-20.15 54.79-18.75L54.79-18.75Q54.79-18.2 54.34-17.82 53.89-17.45 53.19-17.45L53.19-17.45Q52.29-17.45 51.79-17.55L51.79-17.55 50.54-17.55Q50.64-16.25 50.64-13.75L50.64-13.75Q50.64-11.25 50.59-9.25L50.59-9.25Q50.44-6.2 50.44-4.7L50.44-4.7Q50.44-1.9 50.54-1.9L50.54-1.9 52.19-1.95Q53.04-2 54.24-2L54.24-2Q56.14-2 56.14-0.8L56.14-0.8Q56.14-0.1 55.52 0.28 54.89 0.65 53.99 0.65L53.99 0.65 49.74 0.65ZM71.49 0.45Q70.34 0.45 69.79 0.1 69.24-0.25 69.24-1.2L69.24-1.2Q69.24-2.7 68.74-6.3L68.74-6.3 68.54-7.35 63.59-8.1Q63.29-6.95 62.74-3.45L62.74-3.45Q62.44-1 61.79-0.2L61.79-0.2Q61.44 0.25 60.79 0.25L60.79 0.25Q60.19 0.25 59.69-0.13 59.19-0.5 59.19-1.05L59.19-1.05 59.29-1.3 59.34-1.5Q62.64-14.35 64.34-26.85L64.34-26.85Q64.34-27.05 64.39-27.53 64.44-28 64.49-28.9L64.49-28.9Q64.64-30.75 64.81-31.85 64.99-32.95 65.39-33.5L65.39-33.5 67.09-33.5Q67.79-33.5 68.29-33.18 68.79-32.85 68.79-32.25L68.79-32.25Q68.79-28.45 69.84-20.95L69.84-20.95Q70.84-13.25 70.84-10.15L70.84-10.15Q70.84-9.85 71.09-8.6L71.09-8.6Q71.34-7.45 71.34-7.1L71.34-7.1Q71.34-6.75 71.84-4.1L71.84-4.1Q72.29-1.7 72.29-1L72.29-1 72.29-0.95Q72.29 0.15 71.49 0.45L71.49 0.45ZM68.19-9.15Q68.04-9.9 68.04-11L68.04-11Q68.04-15.5 67.24-22.5L67.24-22.5 66.74-27.7Q64.59-15.95 63.79-9.95L63.79-9.95Q64.54-9.45 68.19-9.15L68.19-9.15ZM78.19 0.3Q76.89 0.3 76.89-6.25L76.89-6.25 76.99-14.15Q77.04-17.65 77.04-22L77.04-22Q77.04-23.6 76.74-26.95L76.74-26.95Q76.49-30.6 76.49-31.4L76.49-31.4Q76.49-32.05 77.04-32.55 77.59-33.05 78.24-33.05L78.24-33.05Q79.99-33.05 81.61-32.27 83.24-31.5 84.49-30.1L84.49-30.1Q87.14-27.05 87.99-23.4L87.99-23.4Q88.44-21.55 88.44-19.75L88.44-19.75Q88.44-19.1 88.39-18.55L88.39-18.55 88.34-17.2 88.34-14.45Q88.34-11.25 88.14-9.4L88.14-9.4Q87.84-6.9 86.99-4.95L86.99-4.95Q85.99-2.85 84.09-1.2L84.09-1.2Q83.19-0.45 81.79 0.3L81.79 0.3 78.19 0.3ZM80.39-2.25Q81.39-2.25 82.24-2.78 83.09-3.3 83.69-4.2L83.69-4.2Q84.19-5 84.61-6.23 85.04-7.45 85.24-8.6L85.24-8.6Q85.69-10.85 85.79-13.2L85.79-13.2Q85.84-13.8 85.84-14.95L85.84-14.95Q85.84-30.05 79.99-30.7L79.99-30.7Q79.64-28.45 79.64-25.5L79.64-25.5Q79.64-22.35 80.04-14.5L80.04-14.5Q80.39-7.55 80.39-3.45L80.39-3.45 80.39-2.25ZM94.79 0.7Q93.89 0.55 93.26 0.05 92.64-0.45 92.54-1.25L92.54-1.25 93.09-2.1Q93.39-2.1 94.04-1.9L94.04-1.9Q94.79-1.75 95.19-1.75L95.19-1.75Q96.09-1.75 96.81-2.55 97.54-3.35 97.89-4.65L97.89-4.65Q98.54-7.05 98.54-8.95L98.54-8.95Q98.54-12.25 96.44-15.9L96.44-15.9 95.89-16.85Q94.94-18.5 94.29-19.8 93.64-21.1 93.19-22.6L93.19-22.6Q92.59-24.55 92.59-26.5L92.59-26.5Q92.59-28.7 93.59-31.1L93.59-31.1Q94.09-32.25 95.01-32.98 95.94-33.7 97.09-33.7L97.09-33.7Q97.99-33.7 98.76-33.13 99.54-32.55 99.54-31.75L99.54-31.75Q99.54-31.3 99.19-31.05 98.84-30.8 98.34-30.8L98.34-30.8Q97.79-30.8 97.29-31.1L97.29-31.1Q96.19-31.05 95.54-29.15L95.54-29.15Q94.99-27.4 94.99-26.25L94.99-26.25Q94.99-24.8 95.44-23.33 95.89-21.85 96.59-20.65L96.59-20.65 97.69-18.65 99.44-15.35Q100.14-13.95 100.56-12.1 100.99-10.25 100.99-8.35L100.99-8.35Q100.99-5.3 99.59-2.55L99.59-2.55Q98.89-1.15 97.61-0.3 96.34 0.55 94.79 0.55L94.79 0.55 94.79 0.7Z" opacity="1" transform="matrix(1,0,0,1,0,0)" fill="#755bb4" class="wordmark-text-0" data-fill-palette-color="primary" id="text-0"></path></svg></g></svg></g></svg></g></svg></g><g><svg viewBox="0 0 214.48851839999998 214.48851839999998" height="214.48851839999998" width="214.48851839999998"><g><svg></svg></g><g id="icon-0"><svg viewBox="0 0 214.48851839999998 214.48851839999998" height="214.48851839999998" width="214.48851839999998"><g><rect width="195.02567136" height="195.02567136" x="9.731423519999993" y="9.731423519999993" fill="#755bb4" data-fill-palette-color="accent"></rect><rect width="195.02567136" height="195.02567136" x="19.462847039999993" y="-5.329070518200751e-15" fill="#755bb4" opacity="0.5" data-fill-palette-color="accent"></rect></g><g transform="matrix(1,0,0,1,46.13642382745195,27.80406719999999)"><svg viewBox="0 0 122.21567074509608 158.880384" height="158.880384" width="122.21567074509608"><g><svg xmlns="http://www.w3.org/2000/svg" xmlns:xlink="http://www.w3.org/1999/xlink" version="1.1" x="0" y="0" viewBox="19 9.699999809265137 62 80.60000610351562" enable-background="new 0 0 100 100" xml:space="preserve" height="158.880384" width="122.21567074509608" class="icon-s-0" data-fill-palette-color="background" id="s-0"><g fill="#080808" data-fill-palette-color="background"><polygon points="77.9,32 21.3,44.7 21,49 78.2,36.1  " fill="#080808" data-fill-palette-color="background"></polygon><polygon points="77.3,24.4 21.9,36.8 21.6,41 77.7,28.5  " fill="#080808" data-fill-palette-color="background"></polygon><path d="M64.4 12c0-1.3-1-2.3-2.3-2.3H38c-1.3 0-2.3 1-2.3 2.3v4h28.8C64.4 16 64.4 12 64.4 12z" fill="#080808" data-fill-palette-color="background"></path><polygon points="33,19.2 23.1,21.5 22.8,25.3 49.5,19.2  " fill="#080808" data-fill-palette-color="background"></polygon><polygon points="68.8,19.2 65.6,19.2 22.6,28.9 22.2,33.2 76,21.1  " fill="#080808" data-fill-palette-color="background"></polygon><polygon points="78.5,39.6 20.8,52.6 20.5,56.8 78.8,43.8  " fill="#080808" data-fill-palette-color="background"></polygon><polygon points="80.7,70.1 42,78.9 60.7,78.9 81,74.3  " fill="#080808" data-fill-palette-color="background"></polygon><path d="M35.6 88c0 1.3 1 2.3 2.3 2.3H62c1.3 0 2.3-1 2.3-2.3v-5.6H35.6V88z" fill="#080808" data-fill-palette-color="background"></path><polygon points="79,47.2 20.2,60.4 19.9,64.7 79.3,51.4  " fill="#080808" data-fill-palette-color="background"></polygon><polygon points="79.6,54.9 19.6,68.3 19.3,72.5 79.9,59  " fill="#080808" data-fill-palette-color="background"></polygon><polygon points="80.1,62.4 19.1,76.2 19,76.8 27.5,78.6 80.4,66.6  " fill="#080808" data-fill-palette-color="background"></polygon></g></svg></g></svg></g></svg></g></svg></g></svg></g><defs></defs></svg><rect width="395.52" height="131.35905674017835" fill="none" stroke="none" visibility="hidden"></rect></g></svg></g></svg>